Coordinates
version=1
nRows=6
nColumns=63
inDegrees=yes

Units are S.I. units (second, meters, Newtons, ...)
If the header above contains a line with 'inDegrees', this indicates whether rotational values are in degrees (yes) or radians (no).

endheader
time	pelvis_tilt	pelvis_list	pelvis_rotation	pelvis_tx	pelvis_ty	pelvis_tz	hip_flexion_r	hip_adduction_r	hip_rotation_r	knee_angle_r	knee_angle_r_beta	ankle_angle_r	subtalar_angle_r	mtp_angle_r	hip_flexion_l	hip_adduction_l	hip_rotation_l	knee_angle_l	knee_angle_l_beta	ankle_angle_l	subtalar_angle_l	mtp_angle_l	L5_S1_Flex_Ext	L5_S1_Lat_Bending	L5_S1_axial_rotation	L4_L5_Flex_Ext	L4_L5_Lat_Bending	L4_L5_axial_rotation	L3_L4_Flex_Ext	L3_L4_Lat_Bending	L3_L4_axial_rotation	L2_L3_Flex_Ext	L2_L3_Lat_Bending	L2_L3_axial_rotation	L1_L2_Flex_Ext	L1_L2_Lat_Bending	L1_L2_axial_rotation	L1_T12_Flex_Ext	L1_T12_Lat_Bending	L1_T12_axial_rotation	Abs_r3	Abs_r2	Abs_r1	Abs_t1	Abs_t2	neck_flexion	neck_bending	neck_rotation	arm_flex_r	arm_add_r	arm_rot_r	elbow_flex_r	pro_sup_r	wrist_flex_r	wrist_dev_r	arm_flex_l	arm_add_l	arm_rot_l	elbow_flex_l	pro_sup_l	wrist_flex_l	wrist_dev_l
2.360000	0.452360	4.192994	86.902882	0.177452	0.756623	0.756008	5.953939	-5.601317	-13.158125	28.290469	0.493762	43.828628	13.019315	0.000000	-6.900327	2.333854	3.143877	4.998647	0.087243	33.543455	0.598402	0.000000	0.025023	-0.209527	-3.915174	0.046470	-0.278671	-4.159872	0.041111	-0.509443	-4.159872	0.028599	-0.509443	-3.425777	0.023236	-0.427267	-3.181079	0.014298	-0.324557	-2.936380	0.178738	-2.370209	-21.775021	0.000000	0.000000	19.034230	2.256210	-0.075114	2.895974	-10.257793	-55.195728	138.677556	32.049817	-39.550962	-9.251304	8.912243	7.156252	-60.919454	141.598245	35.208331	-37.423030	-20.064873
2.380000	0.281216	4.237036	87.008823	0.177935	0.756306	0.756298	6.024831	-5.734240	-13.094951	28.522543	0.497812	44.134067	12.786102	0.000000	-6.912886	2.458082	2.976633	4.948785	0.086373	33.891777	1.235393	0.000000	0.016722	-0.252156	-3.804851	0.031054	-0.335367	-4.042654	0.027472	-0.613092	-4.042654	0.019111	-0.613092	-3.329244	0.015528	-0.514196	-3.091441	0.009555	-0.390590	-2.853638	0.119443	-2.852438	-21.161439	0.000000	0.000000	19.451700	2.563542	-1.186969	2.606450	-10.013236	-56.210688	138.915445	34.484011	-41.363740	-8.195802	10.999934	7.757329	-60.934282	141.659440	35.278841	-38.529536	-19.895093
2.400000	0.123955	4.278426	87.111255	0.178463	0.755996	0.756568	6.096557	-5.842736	-12.987319	28.730630	0.501444	44.416812	12.492055	0.000000	-6.922124	2.566605	2.777615	4.920637	0.085881	34.218553	1.817546	0.000000	0.007621	-0.293818	-3.690566	0.014152	-0.390778	-3.921227	0.012520	-0.714389	-3.921227	0.008710	-0.714389	-3.229246	0.007076	-0.599153	-2.998585	0.004354	-0.455124	-2.767925	0.054433	-3.323726	-20.525823	0.000000	0.000000	19.853684	2.805126	-2.354997	2.252517	-9.767169	-57.287861	139.188669	36.499086	-42.910370	-7.301833	13.142727	8.415792	-61.177495	141.811359	36.309233	-39.442436	-18.713188
2.420000	-0.016755	4.327257	87.213280	0.179001	0.755723	0.756849	6.157856	-5.935719	-12.873909	28.912975	0.504627	44.685145	12.193217	0.000000	-6.932190	2.656347	2.511240	4.928997	0.086027	34.504227	2.353263	0.000000	-0.002352	-0.332476	-3.596364	-0.004369	-0.442193	-3.821137	-0.003865	-0.808381	-3.821137	-0.002689	-0.808381	-3.146819	-0.002184	-0.677985	-2.922046	-0.001344	-0.515005	-2.697273	-0.016803	-3.761032	-20.001900	0.000000	0.000000	20.179671	3.000518	-3.293194	1.945196	-9.526879	-58.184507	139.437446	38.539220	-44.266091	-6.433338	15.220991	9.064406	-61.706754	142.001497	37.846066	-40.432105	-16.760340
2.440000	-0.137227	4.358312	87.314747	0.179545	0.755455	0.757126	6.244377	-6.000036	-12.716426	29.084707	0.507624	44.940353	11.835835	0.000000	-6.918213	2.718027	2.147473	4.976089	0.086849	34.747534	2.892587	0.000000	-0.009470	-0.367530	-3.516957	-0.017587	-0.488815	-3.736767	-0.015559	-0.893612	-3.736767	-0.010823	-0.893612	-3.077337	-0.008794	-0.749467	-2.857527	-0.005411	-0.569304	-2.637718	-0.067644	-4.157572	-19.560259	0.000000	0.000000	20.425473	3.149060	-4.058856	1.656311	-9.286528	-58.981774	139.655595	40.710240	-45.521714	-5.481765	17.169097	9.688450	-62.493798	142.220679	40.367827	-41.347150	-13.879764
2.460000	-0.239393	4.387596	87.418263	0.180036	0.755242	0.757380	6.326193	-6.054579	-12.580657	29.234548	0.510239	45.177164	11.509591	0.000000	-6.902358	2.759178	1.719967	5.050768	0.088153	34.935572	3.416943	0.000000	-0.014944	-0.397588	-3.459627	-0.027752	-0.528793	-3.675853	-0.024551	-0.966697	-3.675853	-0.017079	-0.966697	-3.027173	-0.013877	-0.810762	-2.810947	-0.008539	-0.615865	-2.594720	-0.106742	-4.497601	-19.241406	0.000000	0.000000	20.563802	3.259897	-4.523315	1.408229	-9.063850	-59.575123	139.813557	42.729255	-46.473193	-4.706979	18.884734	10.224684	-63.236541	142.367872	41.892830	-42.157858	-11.755245
